<mxfile host="app.diagrams.net" modified="2021-01-21T01:50:39.900Z" agent="5.0 (Windows NT 10.0; Win64; x64) AppleWebKit/537.36 (KHTML, like Gecko) Chrome/87.0.4280.88 Safari/537.36" etag="ZqhjxEFin_0zwD5KaQsT" version="14.2.5" type="github">
  <diagram id="C5RBs43oDa-KdzZeNtuy" name="Page-1">
    <mxGraphModel dx="1422" dy="1931" grid="1" gridSize="10" guides="1" tooltips="1" connect="1" arrows="1" fold="1" page="1" pageScale="1" pageWidth="827" pageHeight="1169" math="0" shadow="0">
      <root>
        <mxCell id="WIyWlLk6GJQsqaUBKTNV-0" />
        <mxCell id="WIyWlLk6GJQsqaUBKTNV-1" parent="WIyWlLk6GJQsqaUBKTNV-0" />
        <mxCell id="WIyWlLk6GJQsqaUBKTNV-2" value="" style="rounded=0;html=1;jettySize=auto;orthogonalLoop=1;fontSize=11;endArrow=block;endFill=0;endSize=8;strokeWidth=1;shadow=0;labelBackgroundColor=none;edgeStyle=orthogonalEdgeStyle;entryX=0.5;entryY=0;entryDx=0;entryDy=0;" parent="WIyWlLk6GJQsqaUBKTNV-1" source="WIyWlLk6GJQsqaUBKTNV-3" target="GbMU0dtNop_g8KCzTVqX-0" edge="1">
          <mxGeometry relative="1" as="geometry" />
        </mxCell>
        <mxCell id="WIyWlLk6GJQsqaUBKTNV-3" value="登录 admin" style="rounded=1;whiteSpace=wrap;html=1;fontSize=12;glass=0;strokeWidth=1;shadow=0;" parent="WIyWlLk6GJQsqaUBKTNV-1" vertex="1">
          <mxGeometry x="160" y="-170" width="120" height="40" as="geometry" />
        </mxCell>
        <mxCell id="GbMU0dtNop_g8KCzTVqX-13" style="edgeStyle=none;rounded=0;orthogonalLoop=1;jettySize=auto;html=1;exitX=0.5;exitY=1;exitDx=0;exitDy=0;entryX=0.5;entryY=0;entryDx=0;entryDy=0;dashed=1;strokeColor=#000000;" edge="1" parent="WIyWlLk6GJQsqaUBKTNV-1" source="GbMU0dtNop_g8KCzTVqX-0" target="GbMU0dtNop_g8KCzTVqX-12">
          <mxGeometry relative="1" as="geometry" />
        </mxCell>
        <mxCell id="GbMU0dtNop_g8KCzTVqX-0" value="生成边栏菜单" style="rounded=1;whiteSpace=wrap;html=1;fontSize=12;glass=0;strokeWidth=1;shadow=0;" vertex="1" parent="WIyWlLk6GJQsqaUBKTNV-1">
          <mxGeometry x="160" y="-60" width="120" height="40" as="geometry" />
        </mxCell>
        <mxCell id="GbMU0dtNop_g8KCzTVqX-4" style="edgeStyle=orthogonalEdgeStyle;rounded=0;orthogonalLoop=1;jettySize=auto;html=1;entryX=1;entryY=0;entryDx=0;entryDy=0;" edge="1" parent="WIyWlLk6GJQsqaUBKTNV-1" source="GbMU0dtNop_g8KCzTVqX-3" target="GbMU0dtNop_g8KCzTVqX-0">
          <mxGeometry relative="1" as="geometry" />
        </mxCell>
        <mxCell id="GbMU0dtNop_g8KCzTVqX-8" style="rounded=0;orthogonalLoop=1;jettySize=auto;html=1;entryX=0.5;entryY=0;entryDx=0;entryDy=0;dashed=1;" edge="1" parent="WIyWlLk6GJQsqaUBKTNV-1" source="GbMU0dtNop_g8KCzTVqX-3" target="GbMU0dtNop_g8KCzTVqX-5">
          <mxGeometry relative="1" as="geometry" />
        </mxCell>
        <mxCell id="GbMU0dtNop_g8KCzTVqX-3" value="权限中心配置" style="ellipse;whiteSpace=wrap;html=1;" vertex="1" parent="WIyWlLk6GJQsqaUBKTNV-1">
          <mxGeometry x="390" y="-150" width="120" height="80" as="geometry" />
        </mxCell>
        <mxCell id="GbMU0dtNop_g8KCzTVqX-7" style="edgeStyle=orthogonalEdgeStyle;rounded=0;orthogonalLoop=1;jettySize=auto;html=1;entryX=1;entryY=0.5;entryDx=0;entryDy=0;" edge="1" parent="WIyWlLk6GJQsqaUBKTNV-1" source="GbMU0dtNop_g8KCzTVqX-20" target="GbMU0dtNop_g8KCzTVqX-0">
          <mxGeometry relative="1" as="geometry" />
        </mxCell>
        <mxCell id="GbMU0dtNop_g8KCzTVqX-9" style="edgeStyle=none;rounded=0;orthogonalLoop=1;jettySize=auto;html=1;exitX=0.5;exitY=0;exitDx=0;exitDy=0;entryX=0.5;entryY=1;entryDx=0;entryDy=0;dashed=1;strokeColor=#000000;" edge="1" parent="WIyWlLk6GJQsqaUBKTNV-1" source="GbMU0dtNop_g8KCzTVqX-5" target="GbMU0dtNop_g8KCzTVqX-3">
          <mxGeometry relative="1" as="geometry" />
        </mxCell>
        <mxCell id="GbMU0dtNop_g8KCzTVqX-5" value="子应用菜单 route" style="ellipse;whiteSpace=wrap;html=1;" vertex="1" parent="WIyWlLk6GJQsqaUBKTNV-1">
          <mxGeometry x="390" y="-30" width="120" height="80" as="geometry" />
        </mxCell>
        <mxCell id="GbMU0dtNop_g8KCzTVqX-14" style="edgeStyle=none;rounded=0;orthogonalLoop=1;jettySize=auto;html=1;dashed=1;strokeColor=#000000;" edge="1" parent="WIyWlLk6GJQsqaUBKTNV-1">
          <mxGeometry relative="1" as="geometry">
            <mxPoint x="220" y="150" as="targetPoint" />
            <mxPoint x="220" y="130" as="sourcePoint" />
          </mxGeometry>
        </mxCell>
        <mxCell id="GbMU0dtNop_g8KCzTVqX-12" value="打开子应用" style="rounded=1;whiteSpace=wrap;html=1;fontSize=12;glass=0;strokeWidth=1;shadow=0;" vertex="1" parent="WIyWlLk6GJQsqaUBKTNV-1">
          <mxGeometry x="160" y="50" width="120" height="40" as="geometry" />
        </mxCell>
        <mxCell id="GbMU0dtNop_g8KCzTVqX-15" value="fetch json" style="text;html=1;strokeColor=none;fillColor=none;align=center;verticalAlign=middle;whiteSpace=wrap;rounded=0;" vertex="1" parent="WIyWlLk6GJQsqaUBKTNV-1">
          <mxGeometry x="300" y="-30" width="70" height="20" as="geometry" />
        </mxCell>
        <mxCell id="GbMU0dtNop_g8KCzTVqX-16" value="子应用子路由" style="rounded=1;whiteSpace=wrap;html=1;fontSize=12;glass=0;strokeWidth=1;shadow=0;" vertex="1" parent="WIyWlLk6GJQsqaUBKTNV-1">
          <mxGeometry x="160" y="150" width="120" height="40" as="geometry" />
        </mxCell>
        <mxCell id="GbMU0dtNop_g8KCzTVqX-18" style="edgeStyle=none;rounded=0;orthogonalLoop=1;jettySize=auto;html=1;dashed=1;strokeColor=#000000;entryX=0.5;entryY=0;entryDx=0;entryDy=0;" edge="1" parent="WIyWlLk6GJQsqaUBKTNV-1" source="GbMU0dtNop_g8KCzTVqX-12" target="GbMU0dtNop_g8KCzTVqX-16">
          <mxGeometry relative="1" as="geometry">
            <mxPoint x="220" y="110" as="targetPoint" />
            <mxPoint x="220" y="90" as="sourcePoint" />
          </mxGeometry>
        </mxCell>
        <mxCell id="GbMU0dtNop_g8KCzTVqX-19" value="patch route" style="text;html=1;strokeColor=none;fillColor=none;align=center;verticalAlign=middle;whiteSpace=wrap;rounded=0;" vertex="1" parent="WIyWlLk6GJQsqaUBKTNV-1">
          <mxGeometry x="180" y="110" width="80" height="20" as="geometry" />
        </mxCell>
        <mxCell id="GbMU0dtNop_g8KCzTVqX-20" value="patch route" style="text;html=1;strokeColor=none;fillColor=none;align=center;verticalAlign=middle;whiteSpace=wrap;rounded=0;" vertex="1" parent="WIyWlLk6GJQsqaUBKTNV-1">
          <mxGeometry x="295" width="80" height="20" as="geometry" />
        </mxCell>
        <mxCell id="GbMU0dtNop_g8KCzTVqX-21" style="edgeStyle=orthogonalEdgeStyle;rounded=0;orthogonalLoop=1;jettySize=auto;html=1;entryX=1;entryY=0.5;entryDx=0;entryDy=0;" edge="1" parent="WIyWlLk6GJQsqaUBKTNV-1" source="GbMU0dtNop_g8KCzTVqX-5" target="GbMU0dtNop_g8KCzTVqX-20">
          <mxGeometry relative="1" as="geometry">
            <mxPoint x="390" y="10" as="sourcePoint" />
            <mxPoint x="280" y="-40" as="targetPoint" />
          </mxGeometry>
        </mxCell>
      </root>
    </mxGraphModel>
  </diagram>
</mxfile>
